<svg xmlns="http://www.w3.org/2000/svg" version="1.1" width="2500" height="1668" viewBox="0 0 1513.644 1009.763"><path d="M51.12 1h1411.405c27.565 0 50.12 22.553 50.12 50.12v907.524c0 27.566-22.555 50.119-50.12 50.119H51.12c-27.567 0-50.12-22.553-50.12-50.12V51.12C1 23.553 23.553 1 51.12 1" fill="#ffffff" fill-rule="evenodd"/><path d="M822.09 426.115a1.03 1.03 0 0 1-1.377-1.042c.12-1.711.36-3.423.708-5.135 2.9-14.48 5.762-28.707 8.57-42.667a1.94 1.94 0 0 1 1.403-1.484c56.63-15.256 115.078-26.234 175.332-32.906 67.658-7.488 135.33-10.27 202.896-7.702 31.016 1.177 62.352 3.758 92.659 9.253q.842.14.842 1.003v.414c0 .201-.107.295-.307.281-4.773-.267-7.901-.348-9.385-.227-8.048.615-16.016.682-23.997 1.083q-90.62 4.673-185.972 19.174c-66.456 10.122-130.359 23.426-191.708 39.939-17.794 4.787-37.178 10.216-58.14 16.286a192 192 0 0 0-11.525 3.73m-400.193 65.331q.26.462.722.803a621 621 0 0 1 95.345 85.761c.429.469.08 1.217-.548 1.217l-99.169.014c-.99 0-1.925-.401-2.607-1.097-28.65-29.215-58.582-57.642-87.11-86.817a.638.638 0 0 1 .08-.963c.668-.469 1.764-.469 2.66-.71 29.612-8.009 57.659-18.09 84.156-30.218 17.18-7.876 70.052-34.203 49.01-60.972-9.692-12.328-31.537-15.23-46.282-15.27-71.416-.146-140.84-.227-208.286-.227a.86.86 0 0 1-.815-1.136 84 84 0 0 1 2.02-5.483 1768 1768 0 0 1 12.886-30.445c.16-.388.548-.642.976-.642 81.001-.133 162.484-.16 244.474-.08q18.99.02 36.537 5.816c23.382 7.742 42.272 25.913 41.964 52.067-.093 6.832.294 13.545-1.524 20.257-4.385 16.059-16.175 30.018-29.852 39.591-23.89 16.728-52.98 24.564-82.659 27.545-4.011.414-7.847.508-11.524.28a.483.483 0 0 0-.454.71m746.71 25.754c6.564 33.053 42.058 29.723 66.322 23.385 17.888-4.666 36.55-11.579 56.002-20.739a93 93 0 0 0 8.77-4.72c1.685-1.029 2.272-.587 1.778 1.324-3.49 13.559-7.018 27.25-10.575 41.063-.28 1.083-1.163 1.925-2.674 2.513-22.98 9.08-47.004 15.15-72.07 18.199-22.714 2.768-43.408 1.443-62.111-3.972-29.158-8.423-53.356-28.908-55.975-59.888-.923-10.978 1.016-22.731 5.815-35.287 14.331-37.465 53.476-64.555 90.787-75.199 22.793-6.511 46.884-8.223 70.654-6.699 15.802 1.003 33.408 7.301 45.28 17.583 19.665 17.035 20.615 45.448 1.844 63.353-11.884 11.324-28.462 17.65-44.53 20.564a11744 11744 0 0 1-98.569 17.422c-.628.107-.868.468-.748 1.098m-554.12 5.173c-2.688 11.045 2.927 19.041 13.796 21.273 10.428 2.14 22.125 1.352 32.847-.735 12.192-2.392 22.86-7.714 28.57-19.04 2.351-4.68 4.343-9.96 5.974-15.858 9.826-35.7 17.22-72.35 23.784-108.211a1.36 1.36 0 0 1 1.336-1.124l64.157-.04c.12 0 .2.067.214.2.12 1.565.013 3.13-.334 4.72-10.334 47.173-19.479 86.672-27.433 118.508-4.947 19.736-11.791 36.717-31.283 45.783-12.955 6.03-27.512 8.276-41.897 9.613a363 363 0 0 1-28.275 1.524q-38.804.583-66.576.08c-18.489-.346-43.342-8.824-45.093-30.9-.334-4.077.32-9.626 1.951-16.633a35699 35699 0 0 0 30.562-132.146c.107-.455.388-.682.855-.696l66.51-.053c.334 0 .574.308.495.629a40081 40081 0 0 0-30.16 123.106m484.75-117.664-41.23 173.662c-.12.482-.548.83-1.055.83l-61.377.053a1.09 1.09 0 0 1-1.055-1.337l39.196-166.63c.107-.455.482-.79.937-.829l63.42-7.073a1.076 1.076 0 0 1 1.163 1.324m-767.513 2.942-61.683 170.6a1.22 1.22 0 0 1-1.15.816l-79.984.08a1.22 1.22 0 0 1-1.15-1.644l61.656-170.642a1.23 1.23 0 0 1 1.164-.815l79.998-.04a1.22 1.22 0 0 1 1.15 1.645M954.211 566.98c-7.967 31.943-23.114 62.403-51.028 80.815-25.561 16.861-57.927 25.15-88.661 27.718q-.703.06-.642-.642.2-2.265.682-4.372a1547 1547 0 0 1 6.738-28.694 1.79 1.79 0 0 1 1.404-1.35c21.657-4.333 42.726-13.893 53.314-34.377 4.278-8.29 7.874-17.463 10.79-27.505 14.29-49.192 26.883-99.453 37.805-150.772a1.82 1.82 0 0 1 1.51-1.43 3899 3899 0 0 1 60.013-9.172 14.2 14.2 0 0 1 4.131 0c.575.079.95.641.802 1.202a93661 93661 0 0 1-36.858 148.58m-72.444-130.915-33.502 141.933a1.6 1.6 0 0 1-1.552 1.23l-60.413.027a1.594 1.594 0 0 1-1.55-1.965l31.39-130.662a1.61 1.61 0 0 1 1.257-1.203l62.538-11.3a1.59 1.59 0 0 1 1.832 1.94m342.52 53.19c12.954-2.567 25.36-8.772 33.555-18.706 5.735-6.953 9.933-17.784 6.323-26.248-5.748-13.518-19.518-11.325-30.627-7.568-30.347 10.243-54.09 30.847-64.344 61.333-.481 1.417.014 1.979 1.485 1.698 18.488-3.596 36.362-7.1 53.608-10.51" fill="#db2228"/></svg>